HIERARCHY
ROOT Hips
{
	OFFSET	0.000000	0.000000	0.000000
	CHANNELS 6 Xposition Yposition Zposition Zrotation Xrotation Yrotation
	JOINT LeftHip
	{
		OFFSET	10.628554	-12.025426	0.145870
		CHANNELS 3 Zrotation Xrotation Yrotation
		JOINT LeftKnee
		{
			OFFSET	0.063751	-35.282885	-0.125152
			CHANNELS 3 Zrotation Xrotation Yrotation
			JOINT LeftAnkle
			{
				OFFSET	-1.605697	-35.971224	-3.706495
				CHANNELS 3 Zrotation Xrotation Yrotation
				JOINT LeftAnkleEnd
				{
					OFFSET	0.623245	-4.766945	-2.510598
					CHANNELS 3 Zrotation Xrotation Yrotation
					End Site
					{
						OFFSET	0.568289	0.000024	14.236649
					}
				}
			}
		}
	}
	JOINT RightHip
	{
		OFFSET	-10.628554	-12.025426	0.145870
		CHANNELS 3 Zrotation Xrotation Yrotation
		JOINT RightKnee
		{
			OFFSET	-0.063751	-35.282885	-0.125152
			CHANNELS 3 Zrotation Xrotation Yrotation
			JOINT RightAnkle
			{
				OFFSET	1.605697	-35.971224	-3.706495
				CHANNELS 3 Zrotation Xrotation Yrotation
				JOINT RightAnkleEnd
				{
					OFFSET	-0.623245	-4.766945	-2.510598
					CHANNELS 3 Zrotation Xrotation Yrotation
					End Site
					{
						OFFSET	-0.568289	0.000024	14.236649
					}
				}
			}
		}
	}
	JOINT Chest
	{
		OFFSET	0.000000	12.026417	-0.714291
		CHANNELS 3 Zrotation Xrotation Yrotation
		JOINT Chest1
		{
			OFFSET	0.000000	9.058884	0.000000
			CHANNELS 3 Zrotation Xrotation Yrotation
			JOINT LeftCollar
			{
				OFFSET	3.957193	15.332404	-1.829478
				CHANNELS 3 Zrotation Xrotation Yrotation
				JOINT LeftShoulder
				{
					OFFSET	10.550170	-2.240910	0.518958
					CHANNELS 3 Zrotation Xrotation Yrotation
					JOINT LeftElbow
					{
						OFFSET	4.297553	-25.599643	-0.166695
						CHANNELS 3 Zrotation Xrotation Yrotation
						JOINT LeftWrist
						{
							OFFSET	2.822981	-22.410623	4.642079
							CHANNELS 3 Zrotation Xrotation Yrotation
							End Site
							{
								OFFSET	1.134968	-7.923276	1.802445
							}
						}
					}
				}
			}
			JOINT RightCollar
			{
				OFFSET	-3.957193	15.332404	-1.829478
				CHANNELS 3 Zrotation Xrotation Yrotation
				JOINT RightShoulder
				{
					OFFSET	-10.550170	-2.240910	0.518958
					CHANNELS 3 Zrotation Xrotation Yrotation
					JOINT RightElbow
					{
						OFFSET	-4.297553	-25.599643	-0.166695
						CHANNELS 3 Zrotation Xrotation Yrotation
						JOINT RightWrist
						{
							OFFSET	-2.822981	-22.410623	4.642079
							CHANNELS 3 Zrotation Xrotation Yrotation
							End Site
							{
								OFFSET	-1.134968	-7.923276	1.802445
							}
						}
					}
				}
			}
			JOINT Neck
			{
				OFFSET	0.000000	20.347508	-0.117170
				CHANNELS 3 Zrotation Xrotation Yrotation
				JOINT Head
				{
					OFFSET	0.000000	9.048420	0.880189
					CHANNELS 3 Zrotation Xrotation Yrotation
					End Site
					{
						OFFSET	0.000000	13.896797	-0.059005
					}
				}
			}
		}
	}
}
MOTION
Frames:     13
Frame Time: 0.016667
0.000000	90.587599	0.000000	0.012299	-0.708474	-0.037414	-0.052299	0.604283	-0.586554	0.027292	0.107553	0.450550	0.016926	-0.076746	0.181706	0.	0.	0.	-0.022821	0.603867	0.175544	0.010377	0.104567	-0.137866	-0.013875	-0.032384	-0.009474	0.	0.	0.	-0.000000	0.000000	-0.000000	-0.072906	-0.165336	-0.109050	-0.382704	0.358778	-0.030365	0.207380	0.123560	-0.069869	0.288039	-0.019038	-0.705483	1.082825	0.670777	-2.089895	0.091249	0.058858	0.053137	-0.158850	0.422699	-0.055403	0.200409	-0.226283	-0.438262	-0.120729	0.300992	0.318227	0.087027	0.098407	0.082006	-0.338486	-0.084274	0.092598	
-0.000167	90.587677	-0.003452	0.013091	-0.724505	-0.036933	-0.053096	0.620313	-0.587011	0.027292	0.107553	0.450550	0.016926	-0.076746	0.181706	0.	0.	0.	-0.023618	0.619897	0.175078	0.010377	0.104567	-0.137866	-0.013875	-0.032384	-0.009474	0.	0.	0.	0.000000	-0.000000	-0.000000	-0.075302	-0.172842	-0.105659	-0.381132	0.382343	-0.034052	0.197627	0.106110	-0.067802	0.298398	-0.023373	-0.707878	1.077540	0.679504	-2.066732	0.097793	0.062715	0.044863	-0.169995	0.422329	-0.049260	0.207574	-0.210588	-0.465245	-0.121951	0.305272	0.343496	0.091674	0.098677	0.079736	-0.350624	-0.083080	0.094628	
-0.000236	90.587696	-0.004907	0.013419	-0.731266	-0.036743	-0.053426	0.627074	-0.587190	0.027292	0.107553	0.450550	0.016926	-0.076746	0.181706	0.	0.	0.	-0.023948	0.626658	0.174896	0.010377	0.104567	-0.137866	-0.013875	-0.032384	-0.009474	0.	0.	0.	0.000000	-0.000001	0.000001	-0.076145	-0.173608	-0.104604	-0.380628	0.389879	-0.035236	0.196040	0.103293	-0.067463	0.300179	-0.027410	-0.708306	1.074606	0.683453	-2.056882	0.099931	0.063770	0.042169	-0.173744	0.421945	-0.047220	0.211975	-0.208492	-0.473153	-0.124335	0.309991	0.350834	0.093222	0.098327	0.079034	-0.354985	-0.083263	0.095406	
-0.001221	90.587793	-0.023734	0.014432	-0.751635	-0.036112	-0.054445	0.647445	-0.587788	0.023987	0.108488	0.402321	0.020289	-0.077690	0.229942	0.	0.	0.	-0.023352	0.623765	0.273063	0.009053	0.127819	-0.236668	-0.013875	-0.032384	-0.009474	0.	0.	0.	-0.000000	0.000001	0.000000	-0.078552	-0.173667	-0.101844	-0.379263	0.410333	-0.038454	0.194444	0.100434	-0.067125	0.302049	-0.034223	-0.708775	1.066560	0.684767	-2.028415	0.103639	0.074869	0.036700	-0.182718	0.409669	-0.043294	0.225096	-0.200274	-0.495008	-0.125574	0.311617	0.375166	0.097847	0.093957	0.077366	-0.369653	-0.086169	0.098232	
-0.010808	90.586863	-0.022331	0.014585	-0.754845	-0.036031	-0.036347	0.644411	-0.588164	0.005441	0.121538	0.354191	0.020802	-0.087911	0.278502	0.	0.	0.	-0.003530	0.613228	0.344403	-0.014402	0.158521	-0.305389	-0.010062	-0.049208	-0.012381	0.	0.	0.	-0.000000	0.000001	-0.000001	-0.078916	-0.173618	-0.101412	-0.379055	0.413497	-0.038942	0.191081	0.094423	-0.066417	0.305405	-0.028212	-0.709514	1.066560	0.684767	-2.028415	0.103845	0.078029	0.036185	-0.184950	0.402368	-0.042685	0.227463	-0.193557	-0.499005	-0.121886	0.304036	0.381523	0.100512	0.078175	0.078175	-0.376421	-0.077679	0.098680	
-0.131851	90.585283	0.028784	0.014585	-0.754845	-0.036031	0.102245	0.581889	-0.643536	-0.160922	0.261871	0.119698	0.055031	-0.249030	0.575674	0.	0.	0.	0.223756	0.600493	0.595504	-0.275136	0.281574	-0.596520	0.025368	-0.248957	-0.003152	0.	0.	0.	-0.000000	0.000001	-0.000001	-0.078916	-0.173618	-0.101412	-0.379055	0.413497	-0.038942	0.179988	0.074588	-0.064076	0.316475	-0.008377	-0.711945	1.049563	0.665758	-1.964469	0.103845	0.078029	0.036185	-0.191654	0.380474	-0.040853	0.228469	-0.174912	-0.500500	-0.105162	0.281823	0.390373	0.103218	0.057292	0.079636	-0.401290	-0.110052	0.099962	
-0.295474	90.585322	0.016027	0.014585	-0.754845	-0.036031	0.120676	0.487175	-0.848561	-0.284556	0.438126	-0.101216	0.169535	-0.426972	1.010708	0.	0.	0.	0.479936	0.484872	0.751011	-0.529249	0.510223	-0.732792	0.099513	-0.492646	-0.075873	0.	0.	0.	-0.000000	0.000001	-0.000001	-0.077911	-0.158701	-0.103843	-0.380051	0.398562	-0.036608	0.174729	0.065188	-0.062973	0.321300	0.000867	-0.699639	1.038220	0.643283	-1.889769	0.102862	0.063115	0.038645	-0.195882	0.366641	-0.039699	0.227111	-0.170007	-0.487142	-0.093807	0.250518	0.308139	0.105216	0.019458	0.083698	-0.435327	-0.159367	0.101432	
-0.419929	90.580662	-0.040819	0.015452	-0.772348	-0.035496	-0.032683	0.280043	-1.156646	-0.215973	0.837552	-0.424182	0.253408	-0.733086	1.635698	0.	0.	0.	0.718236	0.179850	0.902702	-0.788013	1.093708	-0.670089	0.191080	-1.013893	-0.378063	0.	0.	0.	-0.000000	0.000001	0.000001	-0.073620	-0.060823	-0.117271	-0.389492	0.334440	-0.017266	0.180449	0.048177	-0.026603	0.316679	0.000598	-0.586889	1.042903	0.660362	-1.872001	0.085609	0.033582	0.062755	-0.203339	0.309116	-0.034030	0.245455	-0.154730	-0.438935	-0.023239	0.144717	0.066533	0.107300	-0.114986	0.100931	-0.490809	-0.213107	0.097733	
-0.437803	90.573453	-0.088436	0.017519	-0.813569	-0.035061	-0.153701	0.164570	-1.323093	-0.113887	1.134208	-0.624889	0.272712	-0.947198	1.999601	0.	0.	0.	0.787138	-0.048416	0.960188	-0.877962	1.585756	-0.551612	0.199726	-1.440765	-0.628112	0.	0.	0.	-0.000000	0.000003	0.000000	-0.072330	0.033582	-0.126107	-0.391752	0.310447	-0.009567	0.170549	0.022583	0.015328	0.323607	0.008263	-0.550534	1.035327	0.663464	-1.825418	0.088459	0.030019	0.084218	-0.249029	0.268647	-0.010172	0.284367	-0.160462	-0.449655	0.042367	0.077440	-0.035044	0.122109	-0.196695	0.106940	-0.541049	-0.254957	0.098097	
-0.383188	90.525520	-0.181178	0.026596	-0.992530	-0.033859	-0.646527	-0.261035	-1.984978	0.366086	2.360866	-1.173679	0.213118	-1.856312	3.218102	0.	0.	0.	1.100690	-0.992886	1.187378	-1.251284	3.663126	0.090050	0.132442	-3.030472	-1.786743	0.	0.	0.	-0.000000	0.000002	-0.000000	-0.068760	0.416719	-0.158993	-0.366203	0.196333	-0.016397	0.042709	-0.029365	0.235188	0.408395	0.024128	-0.553834	0.984141	0.653862	-1.517052	0.144681	0.037391	0.173544	-0.519408	0.097486	0.072530	0.475022	-0.232616	-0.485121	0.299190	-0.075176	-0.244772	0.250991	-0.403690	0.173171	-0.796617	-0.545663	0.055419	
-0.348855	90.471027	-0.143741	0.070601	-1.112787	-0.049348	-0.976432	-0.649195	-2.359427	0.714269	3.482777	-1.668628	0.142058	-2.642925	4.129469	0.	0.	0.	1.328467	-1.700729	1.335083	-1.572239	5.304405	0.711639	0.012798	-4.177859	-2.812707	0.	0.	0.	-0.000000	0.000000	-0.000001	-0.103301	0.690251	-0.166627	-0.348682	0.138485	-0.013582	-0.068753	-0.039402	0.429769	0.486410	0.015570	-0.534537	0.904413	0.631113	-1.356734	0.186325	0.050539	0.232246	-0.705076	-0.033300	0.090498	0.570993	-0.348008	-0.528700	0.462096	-0.105476	-0.208970	0.313583	-0.544953	0.248911	-0.924670	-0.784279	0.015744	
-0.380236	90.384424	-0.058186	0.166827	-1.168908	-0.077638	-1.340483	-1.182815	-2.409556	1.111113	4.827790	-2.467256	0.096543	-3.575048	5.013282	0.	0.	0.	1.412875	-2.361261	1.451006	-1.848113	6.837876	1.116236	-0.060877	-5.195139	-3.516634	0.	0.	0.	-0.000000	0.000002	0.000001	-0.190908	0.887697	-0.158833	-0.332827	0.131099	-0.006387	-0.199052	-0.036258	0.698870	0.583782	-0.026278	-0.610796	0.795009	0.592553	-1.257990	0.210316	0.088572	0.252319	-0.844598	-0.207893	0.046120	0.607311	-0.468444	-0.644412	0.560642	-0.145033	0.124005	0.330032	-0.677651	0.340142	-1.023799	-0.977970	-0.047565	
-0.435005	90.291309	0.078065	0.292789	-1.117215	-0.107955	-1.722538	-1.900128	-2.336834	1.554788	6.326082	-3.247955	0.065964	-4.564791	5.779494	0.	0.	0.	1.481457	-2.957860	1.502077	-2.162449	8.186897	1.138227	-0.166035	-6.216787	-3.735718	0.	0.	0.	-0.000000	0.000001	-0.000000	-0.309763	0.951115	-0.144905	-0.290209	0.134955	-0.034616	-0.311270	0.037815	1.017471	0.636070	-0.105824	-0.729715	0.678400	0.533649	-1.225686	0.222560	0.141129	0.262078	-0.919366	-0.482148	-0.100425	0.585930	-0.575575	-0.786630	0.533698	-0.137392	0.711893	0.349716	-0.783644	0.432351	-1.124999	-1.146302	-0.116046	
